<svg data-name="Layer 1" viewBox="0 0 64 64" xmlns="http://www.w3.org/2000/svg">
<path fill="none" stroke="currentColor" stroke-linecap="round" stroke-miterlimit="10" stroke-width="2" 
d="M11 52h42M14.836 45h14.328A1.836 1.836 0 0131 46.836v5.016a.148.148 0 01-.148.148h-17.7a.148.148 0 01-.152-.148v-5.016A1.836 1.836 0 0114.836 45zM17.527 41h8.945A1.527 1.527 0 0128 42.527V45h0-12 0v-2.473A1.527 1.527 0 0117.527 41zM13 48h9"/>
<rect height="13.996" rx="1" transform="rotate(-90.109 23 34)" width="3.977" x="21.011" y="27.002" fill="none" stroke="currentColor" stroke-linecap="round" 
stroke-miterlimit="10" stroke-width="2"/><rect height="13.996" rx="1" transform="rotate(-90.109 23 13)" width="3.977" x="21.011" y="6.002" fill="none" 
stroke="currentColor" stroke-linecap="round" stroke-miterlimit="10" stroke-width="2"/><path fill="none" stroke="currentColor"
 stroke-linecap="round" stroke-miterlimit="10" stroke-width="2" 
 d="M18.032 32L18 15.02l9.968-.02L28 31.981zM28.012 27l-.011-5.992L31.99 21 32 26.992z"/>
 <path d="M52 20l.015 7.958a1.009 1.009 0 01-1.1 1.018L32 27.083l-.012-6.128L50.9 18.988A1.009 1.009 0 0152 20zM38 45h2.5a1.5 1.5 0 001.5-1.5h0a1.5 1.5 0 00-1.5-1.5h-1a1.5 1.5 0 01-1.5-1.5h0a1.5 1.5 0 011.5-1.5H42M40 37v2M40 47l.078-1.922M11 27h2.5a1.5 1.5 0 001.5-1.5h0a1.5 1.5 0 00-1.5-1.5h-1a1.5 1.5 0 01-1.5-1.5h0a1.5 1.5 0 011.5-1.5H15M13 19v2M13 29l.078-1.922" 
 fill="none" stroke="currentColor" stroke-linecap="round" stroke-miterlimit="10" stroke-width="2"/></svg>