<svg id="Layer_1" enable-background="new 0 0 512 512" viewBox="0 0 512 512" xmlns="http://www.w3.org/2000/svg"><path d="m413 174.5h-69c-11.046 0-20-8.954-20-20s8.954-20 20-20h69c11.046 0 20 8.954 20 20s-8.954 20-20 20zm20 61c0-11.046-8.954-20-20-20h-69c-11.046 0-20 8.954-20 20s8.954 20 20 20h69c11.046 0 20-8.954 20-20zm-40 122c0 11.046 8.954 20 20 20s20-8.954 20-20-8.954-20-20-20-20 8.954-20 20zm-40 0c0-11.046-8.954-20-20-20h-59c-11.046 0-20 8.954-20 20s8.954 20 20 20h59c11.046 0 20-8.954 20-20zm-139 0c0-11.046-8.954-20-20-20h-94c-11.046 0-20 8.954-20 20s8.954 20 20 20h94c11.046 0 20-8.954 20-20zm0-80v-123c0-11.046-8.954-20-20-20h-94c-11.046 0-20 8.954-20 20v123c0 11.046 8.954 20 20 20h94c11.046 0 20-8.954 20-20zm-94-103h54v83h-54zm134-20c0 11.046 8.954 20 20 20s20-8.954 20-20-8.954-20-20-20-20 8.954-20 20zm1 81c0 11.046 8.954 20 20 20s20-8.954 20-20-8.954-20-20-20-20 8.954-20 20zm257 142c0-11.046-8.954-20-20-20s-20 8.954-20 20c0 22.056-17.944 40-40 40h-352c-22.056 0-40-17.944-40-40v-243c0-22.056 17.944-40 40-40h352c22.056 0 40 17.944 40 40v143c0 11.046 8.954 20 20 20s20-8.954 20-20v-143c0-44.112-35.888-80-80-80h-352c-44.112 0-80 35.888-80 80v243c0 44.112 35.888 80 80 80h352c44.112 0 80-35.888 80-80z"/></svg>