<svg viewBox="0 -46 512 512" xmlns="http://www.w3.org/2000/svg"><path d="m472 171v40h-40v-31c0-33.085938-26.914062-60-60-60h-19v-40h-50v-40h30v-40h-180v40h29v40h-55v41.648438c-26.355469 6.324218-46 30.085937-46 58.351562v11h-41v-40h-40v200h40v-39h41.050781c1.027344 31.171875 25.929688 56.402344 56.976563 57.925781l27.1875 30.210938c11.359375 12.625 27.617187 19.863281 44.597656 19.863281h162.1875c33.085938 0 60-26.914062 60-60v-28h40v39h40v-200zm-250-131h41v40h-41zm-182 191h41v41h-41zm352 61v68c0 11.027344-8.972656 20-20 20h-162.1875c-5.660156 0-11.078125-2.414062-14.863281-6.621094l-39.042969-43.378906h-14.90625c-11.027344 0-20-8.972656-20-20v-130c0-11.027344 8.972656-20 20-20h26v-40h146v40h59c11.027344 0 20 8.972656 20 20v71h80v41zm-142-62h69.601562l-43 90-35 20v-38l16.050782-32h-69.652344l44-99h43.703125zm0 0"/></svg>