<svg id="Capa_1" enable-background="new 0 0 512 512" viewBox="0 0 512 512" xmlns="http://www.w3.org/2000/svg"><g><path d="m417.397 0h-322.794c-16.5 0-29.925 13.424-29.925 29.925v202.265c0 4.142 3.358 7.5 7.5 7.5s7.5-3.358 7.5-7.5v-202.265c0-8.23 6.695-14.925 14.925-14.925h322.794c8.229 0 14.925 6.695 14.925 14.925v361.527c0 .822-.041 1.638-.108 2.448h-77.571c-17.109 0-31.029 13.919-31.029 31.028v71.965c-.81.066-1.625.108-2.447.108h-226.564c-8.229 0-14.925-6.695-14.925-14.925v-219.886c0-4.142-3.358-7.5-7.5-7.5s-7.5 3.358-7.5 7.5v219.885c0 16.5 13.424 29.925 29.925 29.925h226.565c11.797 0 22.891-4.576 31.253-12.889l81.724-76.125c.065-.06.129-.122.191-.185 8.374-8.374 12.986-19.508 12.986-31.351v-361.525c0-16.501-13.424-29.925-29.925-29.925zm-75.294 488.223c-.065.06-.129.122-.191.185-1.038 1.038-2.14 1.988-3.297 2.848v-66.328c0-8.838 7.19-16.028 16.029-16.028h71.93c-.835 1.124-1.753 2.196-2.756 3.208z"/><path d="m373.88 286.605c6.929-12.002 6.929-26.332 0-38.334l-84.682-146.673c-6.929-12.001-19.34-19.167-33.198-19.167s-26.269 7.166-33.198 19.167l-84.682 146.673c-6.929 12.002-6.929 26.332 0 38.334 6.929 12.001 19.339 19.167 33.198 19.167h33.548c4.142 0 7.5-3.358 7.5-7.5s-3.358-7.5-7.5-7.5h-33.548c-8.436 0-15.99-4.361-20.208-11.667s-4.218-16.028 0-23.334l84.682-146.673c4.218-7.305 11.772-11.667 20.208-11.667s15.99 4.362 20.208 11.667l84.682 146.673c4.218 7.306 4.218 16.028 0 23.334-4.218 7.305-11.772 11.667-20.208 11.667h-101.256c-4.142 0-7.5 3.358-7.5 7.5s3.358 7.5 7.5 7.5h101.256c13.858 0 26.268-7.165 33.198-19.167z"/><path d="m257.582 276.004c14.147 0 25.657-11.51 25.657-25.657s-11.51-25.657-25.657-25.657-25.657 11.51-25.657 25.657 11.51 25.657 25.657 25.657zm0-36.314c5.876 0 10.657 4.781 10.657 10.657s-4.781 10.657-10.657 10.657-10.657-4.781-10.657-10.657 4.781-10.657 10.657-10.657z"/><path d="m254.133 214.448h6.899c9.828 0 17.824-7.996 17.824-17.825v-38.204c0-9.828-7.996-17.824-17.824-17.824h-6.899c-9.828 0-17.824 7.996-17.824 17.824v38.204c-.001 9.829 7.995 17.825 17.824 17.825zm-2.825-56.029c0-1.557 1.267-2.824 2.824-2.824h6.899c1.557 0 2.824 1.267 2.824 2.824v38.204c0 1.558-1.267 2.825-2.824 2.825h-6.899c-1.557 0-2.824-1.267-2.824-2.825z"/><path d="m356.102 345.333c0-4.142-3.358-7.5-7.5-7.5h-185.204c-4.142 0-7.5 3.358-7.5 7.5s3.358 7.5 7.5 7.5h185.204c4.142 0 7.5-3.358 7.5-7.5z"/><path d="m163.398 369.833c-4.142 0-7.5 3.358-7.5 7.5s3.358 7.5 7.5 7.5h80.41c4.142 0 7.5-3.358 7.5-7.5s-3.358-7.5-7.5-7.5z"/></g></svg>