<svg id="Capa_1" enable-background="new 0 0 512 512" viewBox="0 0 512 512" xmlns="http://www.w3.org/2000/svg"><path d="m461.882 357.909c-5.523 0-10 4.477-10 10v81.608c0 23.425-19.058 42.483-42.483 42.483h-307.372c-23.425 0-42.483-19.058-42.483-42.483v-247.764c0-23.431 19.058-42.493 42.483-42.493h113.965l7.517 134.05h-52.503v-55.778c0-16.551-13.465-30.016-30.017-30.016-8.015 0-15.552 3.123-21.212 8.784-5.677 5.661-8.804 13.202-8.804 21.232v176.266c0 16.551 13.465 30.017 30.016 30.017 16.364 0 30.017-13.652 30.017-30.017v-60.455h54.351v60.455c0 16.551 13.465 30.017 30.017 30.017 16.362 0 30.017-13.656 30.017-30.017v-60.455h54.351v60.455c0 16.551 13.465 30.017 30.017 30.017 16.362 0 30.016-13.656 30.016-30.017v-176.266c0-16.551-13.465-30.016-30.016-30.016-8.03 0-15.571 3.126-21.213 8.784-5.677 5.661-8.804 13.202-8.804 21.232v55.778h-52.423l7.841-134.05 114.29.002c23.398.026 42.434 19.088 42.434 42.491v78.171c0 5.523 4.477 10 10 10s10-4.477 10-10v-78.171c0-34.419-27.998-62.452-62.422-62.491l-113.133-.002 1.401-23.951c7.351-8.256 11.829-19.123 11.829-31.02v-37.581c-.002-25.755-20.955-46.708-46.71-46.708h-14.272c-25.754 0-46.708 20.953-46.708 46.708v37.581c0 11.797 4.406 22.579 11.646 30.809l1.355 24.162h-112.843c-34.453 0-62.483 28.034-62.483 62.493v247.764c0 34.453 28.03 62.483 62.483 62.483h307.372c34.454 0 62.483-28.03 62.483-62.483v-81.608c0-5.523-4.477-10-10-10zm-224.842-228.358c8.397 2.133 17.478 1.521 26.082 1.443 4.664-.042 9.328-.748 13.78-2.15l-10.167 173.823c-.439 6.852-.803 13.709-1.203 20.563-.091 1.567-.201 3.394-.514 4.921-.936 4.56-4.813 7.833-9.646 7.833-2.766 0-5.451-1.176-7.334-3.201-2.136-2.297-2.545-4.923-2.729-7.923l-1.235-22.109c-.002-.031-.008-.06-.009-.09l-4.219-75.228-4.415-78.734c0-.001 0-.001 0-.001l-1.117-19.92c.9.289 1.811.54 2.726.773zm-76.034 203.792c-5.523 0-10 4.477-10 10v70.455c0 5.458-4.56 10.017-10.017 10.017-5.523 0-10.016-4.494-10.016-10.017v-176.266c0-2.678 1.039-5.189 2.936-7.08 1.894-1.894 4.408-2.936 7.081-2.936 5.523 0 10.017 4.493 10.017 10.016v65.778c0 5.523 4.477 10 10 10h63.625c.164 2.933.329 5.866.493 8.798.211 3.756.219 7.569 1.149 11.234h-65.268zm104.384 80.455c0 5.455-4.561 10.017-10.017 10.017-5.523 0-10.017-4.494-10.017-10.017v-59.531c6.423 2.281 13.61 2.281 20.033 0v59.531zm84.35-100.488c5.523 0 10-4.477 10-10v-65.778c0-2.678 1.039-5.189 2.945-7.09 1.882-1.887 4.393-2.926 7.071-2.926 5.523 0 10.016 4.493 10.016 10.016v176.266c0 5.455-4.56 10.017-10.016 10.017-5.523 0-10.017-4.494-10.017-10.017v-70.455c0-5.523-4.477-10-10-10h-65.267c.894-3.525.922-7.171 1.133-10.782.18-3.083.361-6.167.541-9.25h63.594zm-127.87-266.602c0-14.727 11.981-26.708 26.707-26.708h14.272c14.727 0 26.708 11.981 26.708 26.708v37.581c0 11.043-6.737 20.543-16.318 24.604-5.404 2.402-11.216 2.104-16.971 2.104-5.707 0-11.437.361-16.901-1.638-10.202-3.76-17.498-13.579-17.498-25.07v-37.581z"/><path d="m132.134 191.74c3.044 4.526 9.32 5.801 13.87 2.77 4.544-3.027 5.763-9.336 2.76-13.87-3.012-4.547-9.337-5.761-13.86-2.76-4.54 3.012-5.786 9.334-2.77 13.86z"/><path d="m144.274 455.77c-8.398-3.499-16.795 5.656-12.751 13.727 1.902 3.796 6.192 6.041 10.398 5.399 4.234-.647 7.63-3.967 8.376-8.18.805-4.541-1.751-9.195-6.023-10.946z"/><path d="m380.184 180.64c-3.026-4.537-9.326-5.768-13.86-2.76-4.534 3.009-5.796 9.347-2.77 13.87 3.03 4.529 9.339 5.775 13.87 2.76 4.564-3.037 5.739-9.321 2.76-13.87z"/><path d="m375.694 455.77c-8.391-3.496-16.808 5.653-12.751 13.725 1.908 3.796 6.185 6.045 10.398 5.401 4.233-.647 7.628-3.966 8.376-8.178.807-4.541-1.751-9.197-6.023-10.948z"/><path d="m264.024 459.46c-4.914-7.504-16.871-4.725-18.196 4.078-1.358 9.019 9.653 14.961 16.475 8.989 3.729-3.265 4.465-8.949 1.721-13.067z"/><path d="m472.264 322.93c-1.657-8.822-13.819-10.82-18.37-3.188-2.186 3.666-1.783 8.428 1.003 11.667 2.735 3.179 7.285 4.302 11.189 2.785 4.452-1.729 7.13-6.569 6.178-11.264z"/></svg>