<svg id="Capa_1" enable-background="new 0 0 512 512" viewBox="0 0 512 512" xmlns="http://www.w3.org/2000/svg"><g><path d="m81.617 69.469c2.553-3.262 7.26-3.801 10.493-1.248s3.8 7.26 1.219 10.493l-17.158 21.694 24.503 10.834c4.764 2.069 5.955 8.223 2.467 11.967l-22.773 28.784c-2.58 3.232-7.259 3.801-10.492 1.249-3.233-2.582-3.8-7.262-1.248-10.493l17.186-21.695-24.53-10.834c-4.424-1.957-5.87-7.628-2.836-11.485zm111.735 19.653c-4.14 0-7.515-3.375-7.515-7.516s3.374-7.515 7.515-7.515h126.85c4.169 0 7.515 3.374 7.515 7.515s-3.346 7.516-7.515 7.516zm0 58.221c-4.14 0-7.515-3.348-7.515-7.487 0-4.14 3.374-7.516 7.515-7.516h63.439c4.14 0 7.486 3.376 7.486 7.516s-3.347 7.487-7.486 7.487zm0-29.124c-4.14 0-7.515-3.348-7.515-7.488 0-4.141 3.374-7.515 7.515-7.515h126.85c4.169 0 7.515 3.374 7.515 7.515s-3.346 7.488-7.515 7.488zm170.295 43.814c6.891 0 13.13 2.808 17.667 7.315 2.808 2.808 4.934 6.296 6.153 10.181h6.211l39.022-40.411c1.418-1.476 3.346-2.297 5.388-2.297h48.296l-6.211-6.211c-2.921-2.921-2.921-7.685 0-10.607 2.95-2.921 7.686-2.921 10.635 0l19.001 19.001c2.92 2.921 2.92 7.685 0 10.606l-19.001 19c-2.949 2.922-7.685 2.922-10.635 0-2.921-2.921-2.921-7.685 0-10.605l6.211-6.183h-45.147l-38.626 40.015c-1.389 1.645-3.459 2.693-5.756 2.693h-9.388c-1.219 3.886-3.346 7.346-6.153 10.153-4.537 4.509-10.776 7.316-17.667 7.316-6.892 0-13.131-2.808-17.668-7.316-2.809-2.808-4.936-6.268-6.154-10.153h-6.239l-38.624 40.015c-1.361 1.644-3.432 2.694-5.758 2.694h-9.387c-1.22 3.886-3.347 7.345-6.153 10.152-4.537 4.51-10.776 7.316-17.667 7.316s-13.13-2.807-17.667-7.316c-2.807-2.808-4.934-6.267-6.154-10.152h-6.21l-38.654 40.016c-1.361 1.643-3.431 2.693-5.756 2.693h-9.387c-1.219 3.886-3.346 7.345-6.154 10.151-4.509 4.51-10.776 7.318-17.667 7.318-6.892 0-13.13-2.809-17.639-7.318-2.808-2.807-4.963-6.266-6.183-10.151h-6.211l-38.653 40.015c-1.362 1.646-3.432 2.694-5.757 2.694h-9.358c-1.22 3.885-3.375 7.344-6.183 10.152-4.509 4.509-10.748 7.316-17.667 7.316-6.892 0-13.13-2.808-17.64-7.316-2.807-2.809-4.962-6.268-6.182-10.152h-9.36c-4.14 0-7.515-3.375-7.515-7.516 0-4.14 3.375-7.487 7.515-7.487h9.359c1.219-3.884 3.375-7.373 6.182-10.152 4.509-4.537 10.748-7.316 17.64-7.316 6.92 0 13.158 2.779 17.667 7.316 2.808 2.779 4.963 6.269 6.183 10.152h6.21l38.994-40.411c1.418-1.475 3.346-2.297 5.388-2.297h9.387c1.219-3.886 3.375-7.373 6.183-10.182 4.509-4.509 10.748-7.287 17.639-7.287s13.159 2.778 17.667 7.287c2.808 2.809 4.934 6.296 6.154 10.182h6.239l38.993-40.412c1.418-1.474 3.347-2.296 5.389-2.296h9.386c1.22-3.886 3.347-7.375 6.154-10.182 4.537-4.509 10.776-7.316 17.667-7.316s13.13 2.808 17.667 7.316c2.807 2.807 4.934 6.296 6.153 10.182h6.239l38.993-40.413c1.419-1.474 3.347-2.297 5.389-2.297h9.387c1.219-3.885 3.346-7.373 6.154-10.181 4.539-4.506 10.778-7.314 17.669-7.314zm7.033 17.951c-1.786-1.816-4.282-2.922-7.032-2.922-2.752 0-5.247 1.106-7.062 2.922-1.787 1.785-2.922 4.281-2.922 7.032s1.135 5.246 2.922 7.062c1.814 1.786 4.31 2.921 7.062 2.921 2.75 0 5.246-1.135 7.032-2.921 1.815-1.815 2.921-4.311 2.921-7.062s-1.106-5.247-2.921-7.032zm-322.923 128.125c-1.815-1.814-4.282-2.921-7.062-2.921-2.751 0-5.246 1.106-7.033 2.921-1.815 1.787-2.921 4.283-2.921 7.033 0 2.751 1.106 5.246 2.921 7.061 1.787 1.787 4.282 2.92 7.033 2.92 2.779 0 5.247-1.133 7.062-2.92 1.814-1.815 2.92-4.31 2.92-7.061 0-2.75-1.106-5.246-2.92-7.033zm107.65-42.709c-1.815-1.815-4.311-2.921-7.061-2.921-2.751 0-5.247 1.105-7.033 2.921-1.815 1.787-2.921 4.283-2.921 7.033 0 2.751 1.106 5.247 2.921 7.062 1.787 1.787 4.282 2.921 7.033 2.921 2.75 0 5.246-1.134 7.061-2.921 1.787-1.814 2.921-4.311 2.921-7.062.001-2.75-1.134-5.246-2.921-7.033zm107.651-42.708c-1.814-1.815-4.31-2.921-7.061-2.921s-5.247 1.106-7.061 2.921c-1.787 1.786-2.893 4.282-2.893 7.032 0 2.751 1.106 5.246 2.893 7.061 1.814 1.787 4.311 2.922 7.061 2.922s5.247-1.135 7.061-2.922c1.787-1.815 2.921-4.311 2.921-7.061-.001-2.75-1.134-5.246-2.921-7.032zm233.933 220.321h-51.387v24.247h51.387zm-66.417-240.456c0-4.141 3.374-7.516 7.515-7.516h66.389c4.169 0 7.516 3.375 7.516 7.516v99.71c0 4.141-3.347 7.486-7.516 7.486-4.14 0-7.486-3.346-7.486-7.486v-92.224h-51.387v217.968h51.387v-91.771c0-4.169 3.347-7.515 7.486-7.515 4.169 0 7.516 3.346 7.516 7.515v138.534c0 4.141-3.347 7.486-7.516 7.486h-66.389c-4.141 0-7.515-3.346-7.515-7.486 0-90.748 0-181.496 0-272.217zm-364.157 240.456h-51.415v24.247h51.415zm-51.415-15.002h51.415v-6.069c0-4.141 3.346-7.515 7.486-7.515 4.141 0 7.515 3.374 7.515 7.515v52.833c0 4.141-3.375 7.486-7.515 7.486h-66.388c-4.14 0-7.515-3.346-7.515-7.486v-101.384c0-4.141 3.375-7.515 7.515-7.515h66.388c4.141 0 7.515 3.374 7.515 7.515v14.577c0 4.141-3.375 7.486-7.515 7.486s-7.486-3.346-7.486-7.486v-7.063h-51.415zm159.037 15.002h-51.387v24.247h51.387zm-51.387-15.002h51.387v-89.841h-51.387zm159.038 15.002h-51.386v24.247h51.386zm-66.389-155.039c0-4.14 3.347-7.515 7.487-7.515h66.415c4.141 0 7.487 3.375 7.487 7.515v61.851c0 4.141-3.347 7.487-7.487 7.487s-7.515-3.347-7.515-7.487v-54.364h-51.386v132.551h51.386v-44.212c0-4.141 3.374-7.516 7.515-7.516s7.487 3.375 7.487 7.516v90.976c0 4.141-3.347 7.486-7.487 7.486h-66.415c-4.141 0-7.487-3.346-7.487-7.486 0-62.277 0-124.553 0-186.802zm174.039 155.039h-51.387v24.247h51.387zm-66.389-197.747c0-4.141 3.347-7.516 7.487-7.516h66.417c4.141 0 7.486 3.375 7.486 7.516v229.509c0 4.141-3.346 7.486-7.486 7.486h-66.417c-4.141 0-7.487-3.346-7.487-7.486 0-76.514 0-153.025 0-229.509zm15.002 182.745h51.387v-175.258h-51.387zm-156.398 54.25h-66.417c-4.141 0-7.487-3.346-7.487-7.486v-144.092c0-4.141 3.346-7.516 7.487-7.516h66.417c4.14 0 7.515 3.375 7.515 7.516v144.092c-.001 4.141-3.375 7.486-7.515 7.486zm-36.328-356.358c.936-4.027 4.962-6.552 8.99-5.586 4.027.935 6.551 4.962 5.615 8.989-4.254 18.036-14.548 33.775-28.643 44.948-13.839 10.919-31.279 17.469-50.195 17.469-22.375 0-42.624-9.074-57.257-23.735-14.662-14.662-23.737-34.91-23.737-57.258 0-22.375 9.075-42.623 23.737-57.257 14.633-14.661 34.882-23.735 57.257-23.735 18.916 0 36.356 6.522 50.195 17.469 14.095 11.146 24.389 26.885 28.643 44.949.936 4.027-1.587 8.055-5.615 8.989-4.027.936-8.054-1.56-8.99-5.587-3.46-14.746-11.854-27.564-23.311-36.64-11.23-8.876-25.438-14.18-40.922-14.18-18.235 0-34.712 7.402-46.65 19.341-11.94 11.94-19.341 28.416-19.341 46.65 0 18.208 7.402 34.712 19.341 46.651 11.938 11.939 28.415 19.312 46.65 19.312 15.484 0 29.692-5.303 40.922-14.179 11.456-9.074 19.851-21.892 23.311-36.61z"/></g></svg>